<svg width="18" height="18" viewBox="0 0 18 18" fill="none" xmlns="http://www.w3.org/2000/svg">
<path d="M11.3604 0.179993L12.801 2.41019L15.4554 2.54039L15.5898 5.19479L17.82 6.63539L16.6104 8.99999L17.82 11.3604L15.5898 12.801L15.4596 15.4554L12.8052 15.5898L11.3646 17.82L8.99999 16.6104L6.63959 17.82L5.19899 15.5898L2.54459 15.4596L2.41019 12.8052L0.179993 11.3646L1.38959 8.99999L0.179993 6.63959L2.41019 5.19899L2.54039 2.54459L5.19479 2.41019L6.63539 0.179993L8.99999 1.38959L11.3604 0.179993Z" fill="#42A5F5"/>
<path d="M7.90378 12.045L5.17798 9.31922L6.06838 8.42882L7.92058 10.2768L11.9358 6.38342L12.8136 7.28642L7.90378 12.045Z" fill="white"/>
</svg>
