<svg width="32" height="29" viewBox="0 0 32 29" fill="none" xmlns="http://www.w3.org/2000/svg">
<path d="M28.8534 13.6348H18.57C18.2145 13.6348 17.9272 13.3577 17.9272 13.015C17.9272 12.6723 18.2145 12.3952 18.57 12.3952H28.8534C29.2088 12.3952 29.4961 12.6723 29.4961 13.015C29.4961 13.3577 29.2088 13.6348 28.8534 13.6348Z" fill="#78A0F0"/>
<path d="M23.7117 13.6348C23.3562 13.6348 23.069 13.3577 23.069 13.015V10.536C23.069 10.1932 23.3562 9.9162 23.7117 9.9162C24.0671 9.9162 24.3544 10.1932 24.3544 10.536V13.015C24.3544 13.3577 24.0671 13.6348 23.7117 13.6348ZM20.8201 22.3114C20.6131 22.3114 20.4088 22.2147 20.2854 22.0356C20.088 21.7512 20.1677 21.3669 20.4621 21.176C20.5174 21.1407 25.9612 17.5771 25.9612 13.015C25.9612 12.6723 26.2485 12.3952 26.6039 12.3952C26.9593 12.3952 27.2466 12.6723 27.2466 13.015C27.2466 18.2446 21.4236 22.048 21.1762 22.2073C21.0669 22.2773 20.9422 22.3114 20.8201 22.3114Z" fill="#78A0F0"/>
<path d="M26.6033 22.3114C26.4812 22.3114 26.3571 22.2773 26.2472 22.2073C26.0795 22.0995 22.121 19.5213 20.6916 15.7048C20.5708 15.3825 20.7437 15.0274 21.0779 14.9115C21.4134 14.7937 21.781 14.9617 21.9005 15.284C23.184 18.7112 26.9227 21.1525 26.9606 21.1766C27.255 21.3675 27.3347 21.7518 27.1374 22.0363C27.0146 22.2147 26.8102 22.3114 26.6033 22.3114Z" fill="#78A0F0"/>
<path d="M28.0481 28.509H17.2845C16.9959 28.509 16.7421 28.3231 16.6649 28.0554L10.2378 5.74396C10.1844 5.55741 10.2243 5.35723 10.3458 5.20291C10.4672 5.04858 10.6568 4.9581 10.8574 4.9581H28.0481C29.6067 4.9581 30.9339 6.01789 31.2051 7.47743C32.2649 13.1867 32.2649 20.2798 31.2051 25.9891C30.9339 27.4492 29.6067 28.509 28.0481 28.509ZM17.773 27.2695H28.0481C28.9826 27.2695 29.7783 26.6386 29.9396 25.7703C30.975 20.1962 30.975 13.271 29.9396 7.69682C29.7783 6.82854 28.9826 6.19762 28.0481 6.19762H11.7025L17.773 27.2695Z" fill="#78A0F0"/>
<path d="M14.7137 0.619781H3.95011C2.71802 0.619781 1.64276 1.45956 1.42552 2.62905C0.381109 8.25214 0.381109 15.2988 1.42552 20.9219C1.64276 22.0914 2.71802 22.9312 3.95011 22.9312H21.1408L14.7137 0.619781Z" fill="white"/>
<path d="M3.95014 21.0719C3.64357 21.0719 3.37427 20.8667 3.3235 20.594C2.31315 15.155 2.31315 8.39652 3.3235 2.95749C3.37427 2.68418 3.64357 2.47903 3.95014 2.47903H13.2483L18.6041 21.0719H3.95014Z" fill="#ACEDF6"/>
<path d="M21.1408 23.5509H9.4402C9.08478 23.5509 8.79749 23.2739 8.79749 22.9312C8.79749 22.5884 9.08478 22.3114 9.4402 22.3114H20.2957L14.2252 1.23952H3.95013C3.01562 1.23952 2.21994 1.87044 2.05862 2.73872C1.5528 5.46258 1.28543 8.58741 1.28543 11.7748C1.28543 14.9623 1.55216 18.0884 2.05862 20.8128C2.21994 21.6805 3.01562 22.3114 3.95013 22.3114H6.86934C7.22476 22.3114 7.51206 22.5884 7.51206 22.9312C7.51206 23.2739 7.22476 23.5509 6.86934 23.5509H3.95013C2.39154 23.5509 1.06434 22.4911 0.793111 21.0316C0.273797 18.2359 0 15.0348 0 11.7748C0 8.5149 0.27444 5.31445 0.793111 2.51933C1.06434 1.05979 2.39154 0 3.95013 0H14.7137C15.0023 0 15.2561 0.185928 15.3333 0.453665L21.7604 22.7651C21.8138 22.9516 21.7739 23.1518 21.6524 23.3061C21.531 23.4604 21.3414 23.5509 21.1408 23.5509Z" fill="#78A0F0"/>
<path d="M17.2846 28.509C17.2486 28.509 17.2119 28.5059 17.1753 28.4997C16.9381 28.4607 16.7428 28.2958 16.6714 28.0733L15.0646 23.1152C15.0029 22.9274 15.0389 22.7223 15.1597 22.563C15.2812 22.405 15.4734 22.3114 15.6778 22.3114H21.1409C21.3844 22.3114 21.6068 22.444 21.7161 22.6541C21.8247 22.8642 21.8016 23.1152 21.655 23.303L17.7987 28.2611C17.676 28.4185 17.4851 28.509 17.2846 28.509ZM16.5519 23.5509L17.5237 26.5493L19.8554 23.5509H16.5519ZM9.57198 17.3533C6.38218 17.3533 3.78754 14.8513 3.78754 11.7755C3.78754 8.69958 6.38218 6.1976 9.57198 6.1976C11.1164 6.1976 12.569 6.7777 13.6622 7.83129C13.9135 8.073 13.9135 8.46531 13.6622 8.70763C13.4109 8.94996 13.0047 8.94996 12.7534 8.70763C11.9031 7.88893 10.7732 7.43712 9.57198 7.43712C7.09174 7.43712 5.07297 9.38379 5.07297 11.7755C5.07297 14.1671 7.09174 16.1138 9.57198 16.1138C11.835 16.1138 13.7123 14.495 14.0254 12.3952H9.57198C9.21655 12.3952 8.92926 12.1182 8.92926 11.7755C8.92926 11.4327 9.21655 11.1557 9.57198 11.1557H14.7137C15.0691 11.1557 15.3564 11.4327 15.3564 11.7755C15.3564 14.8513 12.7618 17.3533 9.57198 17.3533Z" fill="#78A0F0"/>
</svg>
